<svg id="Layer_1" data-name="Layer 1" xmlns="http://www.w3.org/2000/svg" viewBox="0 0 986 986"><defs><style>.cls-1{fill:#dbdbdb;}.cls-2{fill:#0c60a5;}.cls-3{fill:none;stroke:#0c60a5;stroke-linecap:round;stroke-linejoin:round;stroke-width:16px;stroke-dasharray:1 44;}</style></defs><title>kimArtboard 12</title><path class="cls-1" d="M50.47,503.28v-9.81a15.74,15.74,0,0,1,8.29-13.86L139.3,436.4a15.73,15.73,0,0,1,23.17,13.86v1.21a15.75,15.75,0,0,1-9,14.21l-54.68,26a7.27,7.27,0,0,0,0,13.11l54.75,26.26a15.73,15.73,0,0,1,8.93,14.18v1.25a15.73,15.73,0,0,1-23.17,13.86L58.76,517.14A15.74,15.74,0,0,1,50.47,503.28Z"/><path class="cls-1" d="M940.71,517.14l-80.54,43.21A15.73,15.73,0,0,1,837,546.49v-1.25a15.73,15.73,0,0,1,8.93-14.18l54.75-26.26a7.26,7.26,0,0,0,0-13.11l-54.68-26a15.75,15.75,0,0,1-9-14.21v-1.21a15.73,15.73,0,0,1,23.17-13.86l80.54,43.21A15.74,15.74,0,0,1,949,493.47v9.81A15.74,15.74,0,0,1,940.71,517.14Z"/><path class="cls-1" d="M825.89,436.63,787.82,564.74a6.72,6.72,0,0,1-6.45,4.8h-6a6.71,6.71,0,0,1-6.44-8.62L806.86,432.8a6.72,6.72,0,0,1,6.45-4.81h6.13A6.73,6.73,0,0,1,825.89,436.63Z"/><path class="cls-1" d="M348.57,501.38Q422,572,452.76,607.5q15.86,17.78,15.85,30T449.4,666.32Q430.2,682.88,418,682.89t-29.53-20.17L282.78,542.19v93.64a138.76,138.76,0,0,1-.72,16.81,38.7,38.7,0,0,1-4.56,12.48q-6.74,13-37.45,13-33.63,0-39.38-18.25-2.88-7.68-2.88-24.49v-267a139.75,139.75,0,0,1,.72-16.57,38.53,38.53,0,0,1,4.56-12.72q6.72-13,37.46-13,33.6,0,39.85,17.77,2.4,8.17,2.4,25v91.71Q348.08,387.1,388.42,340q16.8-19.68,29.29-19.69t31.69,16.57q19.2,16.56,19.21,28.81t-14.4,29Q426.36,427,367.77,483.13Z"/><path class="cls-1" d="M589.61,607H720.22q15.84,0,23,3.6a18.23,18.23,0,0,1,9.6,11.28q2.4,7.7,2.4,20.41t-2.4,20.41q-2.4,7.68-8.16,10.56-9.13,4.82-25,4.81H546.88q-33.61,0-39.38-18.25-2.88-7.68-2.88-24.49v-267a139.75,139.75,0,0,1,.72-16.57,38.53,38.53,0,0,1,4.56-12.72q6.72-13,37.46-13,33.6,0,39.85,17.77,2.4,8.17,2.4,25Z"/><path class="cls-2" d="M41.83,493.68v-9.81A15.71,15.71,0,0,1,50.12,470l80.54-43.21a15.73,15.73,0,0,1,23.16,13.86v1.21a15.74,15.74,0,0,1-9,14.21l-54.68,26a7.26,7.26,0,0,0,0,13.11l54.75,26.27a15.72,15.72,0,0,1,8.92,14.18v1.24a15.73,15.73,0,0,1-23.16,13.87L50.12,507.54A15.73,15.73,0,0,1,41.83,493.68Z"/><path class="cls-2" d="M932.06,507.54l-80.53,43.21a15.73,15.73,0,0,1-23.17-13.87v-1.24a15.72,15.72,0,0,1,8.93-14.18L892,495.19a7.27,7.27,0,0,0,0-13.11l-54.69-26a15.74,15.74,0,0,1-9-14.21v-1.21a15.73,15.73,0,0,1,23.17-13.86L932.06,470a15.72,15.72,0,0,1,8.3,13.86v9.81A15.73,15.73,0,0,1,932.06,507.54Z"/><path class="cls-2" d="M817.24,427,779.17,555.13a6.71,6.71,0,0,1-6.44,4.81h-6a6.73,6.73,0,0,1-6.45-8.63l37.9-128.11a6.72,6.72,0,0,1,6.44-4.82h6.14A6.72,6.72,0,0,1,817.24,427Z"/><path class="cls-2" d="M336.08,488.89Q409.55,559.48,440.28,595q15.84,17.78,15.85,30t-19.21,28.81q-19.21,16.56-31.45,16.56t-29.53-20.17L270.3,529.71v93.63a138.65,138.65,0,0,1-.72,16.81c-.48,3.53-2,7.68-4.57,12.49q-6.72,13-37.45,13-33.62,0-39.37-18.25-2.88-7.67-2.89-24.49v-267a139,139,0,0,1,.73-16.56,38.35,38.35,0,0,1,4.56-12.73q6.72-13,37.45-13,33.6,0,39.86,17.77,2.39,8.16,2.4,25v91.71q65.29-73.47,105.64-120.53,16.8-19.68,29.29-19.68t31.69,16.56q19.2,16.57,19.21,28.81t-14.41,29.05q-27.86,32.19-86.43,88.36Z"/><path class="cls-2" d="M577.13,594.53H707.74q15.84,0,23,3.61a18.22,18.22,0,0,1,9.61,11.28q2.4,7.68,2.4,20.41t-2.4,20.4q-2.42,7.69-8.16,10.57-9.13,4.8-25,4.8H534.39q-33.61,0-39.37-18.25-2.88-7.67-2.88-24.49v-267a139.44,139.44,0,0,1,.72-16.56,38.35,38.35,0,0,1,4.56-12.73q6.72-13,37.45-13,33.6,0,39.86,17.77,2.38,8.16,2.4,25Z"/><circle class="cls-3" cx="493" cy="493" r="471.5"/></svg>