<svg id="Layer_1" data-name="Layer 1" xmlns="http://www.w3.org/2000/svg" viewBox="0 0 155.46 144"><defs><style>.cls-1{fill:#231f20;}</style></defs><title>Artboard 7</title><path class="cls-1" d="M133.34,0H10.63A10.51,10.51,0,0,0,0,10.38V133.61A10.51,10.51,0,0,0,10.63,144H133.34A10.53,10.53,0,0,0,144,133.61V10.38A10.53,10.53,0,0,0,133.34,0ZM42.71,122.71H21.35V54H42.71ZM32,44.59A12.38,12.38,0,1,1,44.41,32.21,12.38,12.38,0,0,1,32,44.59Zm90.68,78.12H101.36V89.29c0-8-.14-18.22-11.1-18.22-11.11,0-12.81,8.68-12.81,17.64v34H56.11V54H76.59v9.39h.29c2.85-5.41,9.82-11.1,20.21-11.1,21.62,0,25.62,14.23,25.62,32.73Z"/><polygon class="cls-1" points="147.51 119.09 148.67 119.09 148.67 122.71 149.3 122.71 149.3 119.09 150.46 119.09 150.46 118.46 147.51 118.46 147.51 119.09"/><polygon class="cls-1" points="154.56 118.46 153.32 121.58 152.09 118.46 151.19 118.46 151.19 122.71 151.82 122.71 151.82 119.48 153.12 122.71 153.53 122.71 154.84 119.48 154.84 122.71 155.46 122.71 155.46 118.46 154.56 118.46"/></svg>