<svg id="Layer_1" data-name="Layer 1" xmlns="http://www.w3.org/2000/svg" viewBox="0 0 408 280"><defs><style>.cls-1{fill:none;}.cls-2,.cls-3,.cls-4{stroke:#000;stroke-width:10px;}.cls-2{stroke-miterlimit:10;}.cls-3{stroke-linecap:round;}.cls-3,.cls-4{stroke-linejoin:round;}</style></defs><title>Artboard 12</title><rect class="cls-1" x="11.5" y="14.5" width="382" height="251" rx="9.5" ry="9.5"/><path class="cls-2" d="M384,17a7,7,0,0,1,7,7V256a7,7,0,0,1-7,7H21a7,7,0,0,1-7-7V24a7,7,0,0,1,7-7H384m0-5H21A12,12,0,0,0,9,24V256a12,12,0,0,0,12,12H384a12,12,0,0,0,12-12V24a12,12,0,0,0-12-12Z"/><polygon class="cls-3" points="201.36 141.6 39 37.78 41.5 34 203.86 137.81 201.36 141.6"/><polygon class="cls-4" points="202.43 141.6 200.14 137.98 352.71 37 355 40.62 202.43 141.6"/><rect class="cls-4" x="54.45" y="159" width="130.11" height="5" transform="translate(-79.2 131.8) rotate(-45)"/><rect class="cls-4" x="283" y="97.32" width="5" height="131.37" transform="translate(-38.23 220.24) rotate(-39.75)"/></svg>